<?xml version="1.0" encoding="utf-8"?>
<!-- Generator: Adobe Illustrator 22.0.0, SVG Export Plug-In . SVG Version: 6.00 Build 0)  -->
<svg version="1.1" id="Layer_1" xmlns="http://www.w3.org/2000/svg" xmlns:xlink="http://www.w3.org/1999/xlink" x="0px" y="0px"
	 viewBox="0 0 16 16" style="enable-background:new 0 0 16 16;" xml:space="preserve">
<style type="text/css">
	.st0{fill:#FFFFFF;}
	.st1{clip-path:url(#SVGID_2_);}
	.st2{fill:#785489;}
</style>
<g>
	<circle class="st0" cx="8" cy="8" r="8"/>
	<g>
		<defs>
			<rect id="SVGID_1_" width="16" height="16"/>
		</defs>
		<clipPath id="SVGID_2_">
			<use xlink:href="#SVGID_1_"  style="overflow:visible;"/>
		</clipPath>
		<g class="st1">
			<path class="st0" d="M8.1,12c-2.2,0-3.9-1.8-3.9-4c0-2.2,1.8-4,3.9-4S12,5.8,12,8C12,10.2,10.2,12,8.1,12z M8.1,6
				C7,6,6.1,6.9,6.1,8c0,1.1,0.9,2,1.9,2C9.1,10,10,9.1,10,8C10,6.9,9.1,6,8.1,6z"/>
		</g>
		<g class="st1">
			<path class="st2" d="M8,12.5c2.5,0,4.5-2,4.5-4.5s-2-4.5-4.5-4.5S3.5,5.5,3.5,8S5.5,12.5,8,12.5"/>
		</g>
		<g class="st1">
			<path class="st2" d="M8,15.5c-4.1,0-7.5-3.4-7.5-7.5S3.9,0.5,8,0.5s7.5,3.4,7.5,7.5S12.1,15.5,8,15.5z M8,2.5C5,2.5,2.5,5,2.5,8
				c0,3,2.5,5.5,5.5,5.5c3,0,5.5-2.5,5.5-5.5C13.5,5,11,2.5,8,2.5z"/>
		</g>
	</g>
</g>
</svg>
