<?xml version="1.0" encoding="utf-8"?>
<!-- Generator: Adobe Illustrator 16.0.0, SVG Export Plug-In . SVG Version: 6.00 Build 0)  -->
<!DOCTYPE svg PUBLIC "-//W3C//DTD SVG 1.1//EN" "http://www.w3.org/Graphics/SVG/1.1/DTD/svg11.dtd">
<svg version="1.1" id="marker" xmlns="http://www.w3.org/2000/svg" xmlns:xlink="http://www.w3.org/1999/xlink" x="0px" y="0px"
	 width="20px" height="20px" viewBox="204.31 204.308 20 20" enable-background="new 204.31 204.308 20 20" xml:space="preserve">
<path fill="#785489" d="M214.31,208.308c-3.333,0-6,2.667-6,6s2.667,6,6,6s6-2.667,6-6S217.643,208.308,214.31,208.308z"/>
<path fill="#785489" d="M214.31,204.308c-5.467,0-10,4.533-10,10s4.533,10,10,10s10-4.533,10-10S219.776,204.308,214.31,204.308z
	 M214.31,221.641c-4,0-7.333-3.333-7.333-7.333s3.333-7.333,7.333-7.333s7.333,3.333,7.333,7.333S218.31,221.641,214.31,221.641z"/>
</svg>
