<?xml version="1.0" encoding="utf-8"?>
<!-- Generator: Adobe Illustrator 16.0.0, SVG Export Plug-In . SVG Version: 6.00 Build 0)  -->
<!DOCTYPE svg PUBLIC "-//W3C//DTD SVG 1.1//EN" "http://www.w3.org/Graphics/SVG/1.1/DTD/svg11.dtd">
<svg version="1.1" id="Layer_1" xmlns="http://www.w3.org/2000/svg" xmlns:xlink="http://www.w3.org/1999/xlink" x="0px" y="0px"
	 width="93.75px" height="93.75px" viewBox="0 0 93.75 93.75" enable-background="new 0 0 93.75 93.75" xml:space="preserve">
<path d="M46.875,18.75c-15.625,0-28.125,12.5-28.125,28.125S31.25,75,46.875,75S75,62.5,75,46.875S62.5,18.75,46.875,18.75z"/>
<path d="M46.875,0C21.25,0,0,21.25,0,46.875S21.25,93.75,46.875,93.75S93.75,72.5,93.75,46.875S72.5,0,46.875,0z M46.875,81.25
	c-18.75,0-34.375-15.625-34.375-34.375S28.125,12.5,46.875,12.5S81.25,28.125,81.25,46.875S65.625,81.25,46.875,81.25z"/>
</svg>
