<?xml version="1.0" encoding="utf-8"?>
<!-- Generator: Adobe Illustrator 16.0.0, SVG Export Plug-In . SVG Version: 6.00 Build 0)  -->
<!DOCTYPE svg PUBLIC "-//W3C//DTD SVG 1.1//EN" "http://www.w3.org/Graphics/SVG/1.1/DTD/svg11.dtd">
<svg version="1.1" id="Layer_1" xmlns="http://www.w3.org/2000/svg" xmlns:xlink="http://www.w3.org/1999/xlink" x="0px" y="0px"
	 width="93.75px" height="93.75px" viewBox="3.125 3.125 93.75 93.75" enable-background="new 3.125 3.125 93.75 93.75"
	 xml:space="preserve">
<path fill="#785489" d="M50,78.125c15.625,0,28.125-12.5,28.125-28.125S65.625,21.875,50,21.875S21.875,34.375,21.875,50
	S34.375,78.125,50,78.125"/>
<path fill="#785489" d="M50,96.875C24.375,96.875,3.125,75.625,3.125,50S24.375,3.125,50,3.125S96.875,24.375,96.875,50
	S75.625,96.875,50,96.875z M50,15.625C31.25,15.625,15.625,31.25,15.625,50S31.25,84.375,50,84.375S84.375,68.75,84.375,50
	S68.75,15.625,50,15.625z"/>
</svg>
