<?xml version="1.0" encoding="utf-8"?>
<!-- Generator: Adobe Illustrator 16.0.0, SVG Export Plug-In . SVG Version: 6.00 Build 0)  -->
<!DOCTYPE svg PUBLIC "-//W3C//DTD SVG 1.1//EN" "http://www.w3.org/Graphics/SVG/1.1/DTD/svg11.dtd">
<svg version="1.1" id="marker" xmlns="http://www.w3.org/2000/svg" xmlns:xlink="http://www.w3.org/1999/xlink" x="0px" y="0px"
	 width="20px" height="20px" viewBox="0 0 20 20" enable-background="new 0 0 20 20" xml:space="preserve">
<path fill="#785489" d="M10,4c-3.334,0-6,2.666-6,6c0,3.332,2.666,6,6,6c3.332,0,6-2.668,6-6C16,6.666,13.332,4,10,4z"/>
<path fill="#785489" d="M10,0C4.532,0,0,4.532,0,10c0,5.467,4.532,10,10,10c5.467,0,10-4.533,10-10C20,4.532,15.465,0,10,0z
	 M10,17.332C6,17.332,2.666,14,2.666,10S6,2.666,10,2.666S17.332,6,17.332,10S14,17.332,10,17.332z"/>
</svg>
